# xmcd
#
# Track frame offsets:
#	150
#	10802
#	23149
#	36274
#	47010
#	58047
#	69281
#	80193
#	92530
#	106493
#	116382
#	131382
#	151782
#	162754
#	179741
#
# Disc length: 2637 seconds
#
# Revision: 1
# Processed by: cddbd v1.5.2PL0 Copyright (c) Steve Scherf et al.
# Submitted via: audiograbber 1.83.01
#
DISCID=b90a4b0f
DTITLE=BILLIE and THE KiDS - Rhythm Bomp - 5714
DYEAR=2010
DGENRE=new Rthythm and Blues
TTITLE0=Them There Eyes
TTITLE1=I´ll Upset You Baby
TTITLE2=Please Send Me Someone To Love
TTITLE3=Good Rockin´Daddy
TTITLE4=Goody Goody
TTITLE5=Halelujah, I Love Him So
TTITLE6=You
TTITLE7=I´m Mad At You Mess Around
TTITLE8=I Need You So
TTITLE9=I´m Mad At You
TTITLE10=Drown In My Own Tears
TTITLE11=W.O.M.A.N.
TTITLE12=So Good To My Baby
TTITLE13=No More Troubles Out Of Me
TTITLE14=Mama, He Treats Your Daughter Mean
EXTD=Fantastic new Oldstyle R&B. Sounds like someone at SPECIALTY or KING Recor
EXTD=ds. She fits in the same vibrations as Etta James, Wynona Carr and Big May
EXTD=belle Smith does.\nRollin Danny 09,2010
EXTT0=
EXTT1=
EXTT2=
EXTT3=
EXTT4=Orioginal by Etta James - 1955 on MODERN REC.
EXTT5=
EXTT6=
EXTT7=
EXTT8=
EXTT9=Original by Wynona Carr at SPECIALTY REC. 1957
EXTT10=
EXTT11=
EXTT12=Original by Big Maybelle on SAVOY REC. 1953
EXTT13=
EXTT14=
PLAYORDER=
